<?xml version="1.0" encoding="UTF-8"?>
<svg width="100px" height="100px" viewBox="0 0 100 100" version="1.1" xmlns="http://www.w3.org/2000/svg">
    <g stroke="none" stroke-width="1" fill="none" fill-rule="evenodd">
        <path d="M50,0 C77.6142375,0 100,22.3857625 100,50 C100,77.6142375 77.6142375,100 50,100 C22.3857625,100 0,77.6142375 0,50 C0,22.3857625 22.3857625,0 50,0 Z M50,20 C33.4314575,20 20,33.4314575 20,50 C20,66.5685425 33.4314575,80 50,80 C66.5685425,80 80,66.5685425 80,50 C80,33.4314575 66.5685425,20 50,20 Z" fill="#FFFFFF"/>
        <path d="M50,30 C61.0457281,30 70,38.954272 70,50 C70,61.045728 61.0457281,70 50,70 C38.954272,70 30,61.045728 30,50 C30,38.954272 38.954272,30 50,30 Z" fill="#FFFFFF"/>
    </g>
</svg>
